<svg width="960" height="720" viewBox="0 0 960 720" fill="none" xmlns="http://www.w3.org/2000/svg">
  <rect width="960" height="720" fill="#E7F0EF"/>
  <rect x="72" y="58" width="816" height="604" rx="12" fill="#FFFFFF" stroke="#C9D2CC" stroke-width="2"/>
  <rect x="72" y="58" width="816" height="54" rx="12" fill="#17211D"/>
  <circle cx="104" cy="85" r="7" fill="#2F8790"/>
  <circle cx="128" cy="85" r="7" fill="#E9DECB"/>
  <circle cx="152" cy="85" r="7" fill="#6CA187"/>
  <rect x="196" y="78" width="176" height="14" rx="7" fill="#FFFFFF"/>
  <rect x="650" y="76" width="152" height="18" rx="9" fill="#2F8790"/>
  <rect x="112" y="150" width="294" height="248" rx="10" fill="#D9ECEE"/>
  <path d="M178 248H302C334 248 360 274 360 306C360 338 334 364 302 364H270" stroke="#2F8790" stroke-width="22" stroke-linecap="round"/>
  <path d="M178 210V290" stroke="#17211D" stroke-width="24" stroke-linecap="round"/>
  <path d="M148 210H208" stroke="#17211D" stroke-width="24" stroke-linecap="round"/>
  <path d="M242 352C218 382 218 410 242 424C266 410 266 382 242 352Z" fill="#246B57"/>
  <rect x="456" y="190" width="264" height="28" rx="14" fill="#17211D"/>
  <rect x="456" y="240" width="306" height="12" rx="6" fill="#53615C"/>
  <rect x="456" y="268" width="242" height="12" rx="6" fill="#53615C"/>
  <rect x="456" y="306" width="166" height="38" rx="4" fill="#246B57"/>
  <text x="484" y="330" fill="#FFFFFF" font-family="Arial, sans-serif" font-size="15" font-weight="700">Describe issue</text>
  <rect x="112" y="444" width="224" height="104" rx="8" fill="#FFFFFF" stroke="#DDE3DE"/>
  <rect x="368" y="444" width="224" height="104" rx="8" fill="#FFFFFF" stroke="#DDE3DE"/>
  <rect x="624" y="444" width="224" height="104" rx="8" fill="#FFFFFF" stroke="#DDE3DE"/>
  <text x="136" y="488" fill="#17211D" font-family="Arial, sans-serif" font-size="20" font-weight="700">Repairs</text>
  <text x="392" y="488" fill="#17211D" font-family="Arial, sans-serif" font-size="20" font-weight="700">Drain work</text>
  <text x="648" y="488" fill="#17211D" font-family="Arial, sans-serif" font-size="20" font-weight="700">Water heaters</text>
  <rect x="112" y="584" width="736" height="40" rx="8" fill="#17211D"/>
  <text x="136" y="610" fill="#FFFFFF" font-family="Arial, sans-serif" font-size="16" font-weight="700">Clear categories, service areas, and project request flow</text>
</svg>
