<svg width="960" height="720" viewBox="0 0 960 720" fill="none" xmlns="http://www.w3.org/2000/svg" role="img" aria-labelledby="title desc">
<title id="title">cleaning hero concept visual</title>
<desc id="desc">Deterministic trade-relevant concept imagery for a prospect website preview.</desc>
<defs>
  <linearGradient id="sky" x1="0" y1="0" x2="1" y2="1"><stop stop-color="#e0f0f0"/><stop offset="1" stop-color="#f8f7f1"/></linearGradient>
  <filter id="shadow" x="-20%" y="-20%" width="140%" height="140%"><feDropShadow dx="0" dy="18" stdDeviation="18" flood-color="#15201e" flood-opacity="0.18"/></filter>
</defs>
<rect width="960" height="720" fill="url(#sky)"/>
<path d="M0 410C150 378 242 455 420 414C602 372 720 400 960 356V720H0V410Z" fill="#d7e4e2"/>
<rect x="72" y="74" width="816" height="548" rx="30" fill="#ffffff" filter="url(#shadow)"/>
<rect x="72" y="74" width="816" height="548" rx="30" stroke="#2f7880" stroke-opacity="0.16" stroke-width="2"/>
<circle cx="802" cy="146" r="54" fill="#8fd9d4" opacity="0.18"/>
<circle cx="158" cy="568" r="78" fill="#2f7880" opacity="0.10"/>
<g transform="translate(98 112) scale(1.28)"><rect x="52" y="60" width="264" height="190" fill="#f8f6ef" stroke="#2f7880" stroke-width="12"/><path d="M52 250h264" stroke="#8fd9d4" stroke-width="20"/><rect x="84" y="92" width="78" height="102" rx="8" fill="#eaf4f3"/><path d="M196 102h82M196 138h82M196 174h62" stroke="#9fb3b1" stroke-width="12" stroke-linecap="round"/></g><g transform="translate(548 118) scale(0.9)"><path d="M90 86h136v188H90z" fill="#f8f6ef" stroke="#2f7880" stroke-width="12"/><path d="M226 116h54v158h-54z" fill="#8fd9d4"/><path d="M118 120h80M118 164h80M118 208h80" stroke="#a3b8b5" stroke-width="10" stroke-linecap="round"/><path d="M286 86c30 58 30 120 0 188" stroke="#1f2524" stroke-width="14" fill="none" stroke-linecap="round"/></g><g transform="translate(588 382) scale(0.72)"><rect x="76" y="96" width="210" height="150" rx="24" fill="#f8f6ef" stroke="#2f7880" stroke-width="12"/><path d="M140 76l18 40l42 18l-42 18l-18 42l-18-42l-40-18l40-18z" fill="#8fd9d4"/><path d="M238 48l12 26l28 12l-28 12l-12 28l-12-28l-26-12l26-12z" fill="#8fd9d4" opacity=".75"/></g>


<rect x="110" y="612" width="740" height="12" rx="6" fill="#2f7880" opacity="0.15"/>
</svg>