<svg width="960" height="720" viewBox="0 0 960 720" fill="none" xmlns="http://www.w3.org/2000/svg" role="img" aria-labelledby="title desc">
<title id="title">concrete service concept visual</title>
<desc id="desc">Deterministic trade-relevant concept imagery for a prospect website preview.</desc>
<defs>
  <linearGradient id="sky" x1="0" y1="0" x2="1" y2="1"><stop stop-color="#e3e3df"/><stop offset="1" stop-color="#f8f7f1"/></linearGradient>
  <filter id="shadow" x="-20%" y="-20%" width="140%" height="140%"><feDropShadow dx="0" dy="18" stdDeviation="18" flood-color="#15201e" flood-opacity="0.18"/></filter>
</defs>
<rect width="960" height="720" fill="url(#sky)"/>
<path d="M0 385C150 353 242 430 420 389C602 347 720 375 960 331V720H0V385Z" fill="#d4d0c8"/>
<rect x="72" y="74" width="816" height="548" rx="30" fill="#ffffff" filter="url(#shadow)"/>
<rect x="72" y="74" width="816" height="548" rx="30" stroke="#5f6468" stroke-opacity="0.16" stroke-width="2"/>
<circle cx="802" cy="146" r="54" fill="#b7a27d" opacity="0.18"/>
<circle cx="158" cy="568" r="78" fill="#5f6468" opacity="0.10"/>

<g transform="translate(98 126) scale(1.08)"><path d="M64 234c72-88 170-118 260-86c-48 72-132 120-260 86Z" fill="#c7d0cf" stroke="#5f6468" stroke-width="12"/><path d="M206 148l56-70" stroke="#1f2524" stroke-width="16" stroke-linecap="round"/><path d="M44 276h292" stroke="#beb8ad" stroke-width="24" stroke-linecap="round"/></g><g transform="translate(530 140) scale(0.86)"><path d="M70 48h230l44 244H28z" fill="#c9c5bc" stroke="#5f6468" stroke-width="10"/><path d="M185 48v244M82 170h226" stroke="#efede8" stroke-width="8"/><path d="M48 292h320" stroke="#b7a27d" stroke-width="18" stroke-linecap="round"/></g><g transform="translate(540 386) scale(0.7)"><path d="M48 278C92 180 134 112 188 48c54 64 96 132 140 230H48Z" fill="#bdb9b0" stroke="#5f6468" stroke-width="10"/><g stroke="#ebe8df" stroke-width="7"><path d="M84 230h208M104 182h168M126 136h124M148 92h80"/><path d="M188 52v224"/></g></g>

<rect x="110" y="612" width="740" height="12" rx="6" fill="#5f6468" opacity="0.15"/>
</svg>