<svg width="960" height="720" viewBox="0 0 960 720" fill="none" xmlns="http://www.w3.org/2000/svg" role="img" aria-labelledby="title desc">
<title id="title">electrical proof concept visual</title>
<desc id="desc">Deterministic trade-relevant concept imagery for a prospect website preview.</desc>
<defs>
  <linearGradient id="sky" x1="0" y1="0" x2="1" y2="1"><stop stop-color="#eee7d8"/><stop offset="1" stop-color="#f8f7f1"/></linearGradient>
  <filter id="shadow" x="-20%" y="-20%" width="140%" height="140%"><feDropShadow dx="0" dy="18" stdDeviation="18" flood-color="#15201e" flood-opacity="0.18"/></filter>
</defs>
<rect width="960" height="720" fill="url(#sky)"/>
<path d="M0 430C150 398 242 475 420 434C602 392 720 420 960 376V720H0V430Z" fill="#ded6c4"/>
<rect x="72" y="74" width="816" height="548" rx="30" fill="#fbfaf6" filter="url(#shadow)"/>
<rect x="72" y="74" width="816" height="548" rx="30" stroke="#6b5120" stroke-opacity="0.16" stroke-width="2"/>
<circle cx="802" cy="146" r="54" fill="#f2b84b" opacity="0.18"/>
<circle cx="158" cy="568" r="78" fill="#6b5120" opacity="0.10"/>


<g transform="translate(110 102) scale(1.02)"><path d="M180 36v76" stroke="#1f2524" stroke-width="12" stroke-linecap="round"/><path d="M112 112h136l-26 90h-84z" fill="#f2b84b" stroke="#6b5120" stroke-width="10"/><circle cx="180" cy="236" r="42" fill="#fff1b7"/><path d="M78 250h204" stroke="#f2b84b" stroke-width="12" stroke-linecap="round" opacity=".5"/></g><g transform="translate(516 112) scale(0.88)"><rect x="80" y="36" width="210" height="260" rx="10" fill="#f8f6ef" stroke="#1f2524" stroke-width="14"/><rect x="112" y="70" width="146" height="44" rx="6" fill="#6b5120"/><g fill="#f2b84b"><rect x="118" y="144" width="54" height="20" rx="10"/><rect x="198" y="144" width="54" height="20" rx="10"/><rect x="118" y="184" width="54" height="20" rx="10"/><rect x="198" y="184" width="54" height="20" rx="10"/><rect x="118" y="224" width="54" height="20" rx="10"/><rect x="198" y="224" width="54" height="20" rx="10"/></g></g><g transform="translate(360 378) scale(0.82)"><rect x="80" y="70" width="210" height="180" rx="28" fill="#f8f6ef" stroke="#6b5120" stroke-width="14"/><circle cx="150" cy="138" r="18" fill="#1f2524"/><circle cx="220" cy="138" r="18" fill="#1f2524"/><path d="M150 192h70" stroke="#1f2524" stroke-width="12" stroke-linecap="round"/><path d="M52 64c74-46 174-46 270 0" stroke="#f2b84b" stroke-width="14" fill="none" stroke-linecap="round"/></g>
<rect x="110" y="612" width="740" height="12" rx="6" fill="#6b5120" opacity="0.15"/>
</svg>