<svg width="960" height="720" viewBox="0 0 960 720" fill="none" xmlns="http://www.w3.org/2000/svg" role="img" aria-labelledby="title desc">
<title id="title">fencing proof concept visual</title>
<desc id="desc">Deterministic trade-relevant concept imagery for a prospect website preview.</desc>
<defs>
  <linearGradient id="sky" x1="0" y1="0" x2="1" y2="1"><stop stop-color="#eadfce"/><stop offset="1" stop-color="#f8f7f1"/></linearGradient>
  <filter id="shadow" x="-20%" y="-20%" width="140%" height="140%"><feDropShadow dx="0" dy="18" stdDeviation="18" flood-color="#15201e" flood-opacity="0.18"/></filter>
</defs>
<rect width="960" height="720" fill="url(#sky)"/>
<path d="M0 430C150 398 242 475 420 434C602 392 720 420 960 376V720H0V430Z" fill="#d8c7ae"/>
<rect x="72" y="74" width="816" height="548" rx="30" fill="#fbfaf6" filter="url(#shadow)"/>
<rect x="72" y="74" width="816" height="548" rx="30" stroke="#765439" stroke-opacity="0.16" stroke-width="2"/>
<circle cx="802" cy="146" r="54" fill="#c8955e" opacity="0.18"/>
<circle cx="158" cy="568" r="78" fill="#765439" opacity="0.10"/>


<g transform="translate(110 102) scale(1.02)"><path d="M30 220C92 152 154 186 220 124c44-42 88-40 124-68v244H30z" fill="#72995c"/><circle cx="132" cy="106" r="52" fill="#c8955e"/><path d="M56 246h270" stroke="#ebf4e2" stroke-width="18" stroke-linecap="round"/></g><g transform="translate(516 112) scale(0.88)"><g fill="#b98455" stroke="#765439" stroke-width="6"><path d="M52 90h42v190H52z"/><path d="M112 70h42v210h-42z"/><path d="M172 90h42v190h-42z"/><path d="M232 70h42v210h-42z"/><path d="M292 90h42v190h-42z"/></g><path d="M42 138h304M42 220h304" stroke="#765439" stroke-width="18"/><path d="M34 300h322" stroke="#72995c" stroke-width="18" stroke-linecap="round"/></g><g transform="translate(360 378) scale(0.82)"><rect x="72" y="78" width="220" height="210" fill="none" stroke="#765439" stroke-width="14"/><path d="M82 88l200 190M282 88L82 278" stroke="#b98455" stroke-width="16"/><circle cx="258" cy="184" r="10" fill="#c8955e"/><path d="M40 300h292" stroke="#72995c" stroke-width="18" stroke-linecap="round"/></g>
<rect x="110" y="612" width="740" height="12" rx="6" fill="#765439" opacity="0.15"/>
</svg>