<svg width="960" height="720" viewBox="0 0 960 720" fill="none" xmlns="http://www.w3.org/2000/svg" role="img" aria-labelledby="title desc">
<title id="title">flooring service concept visual</title>
<desc id="desc">Deterministic trade-relevant concept imagery for a prospect website preview.</desc>
<defs>
  <linearGradient id="sky" x1="0" y1="0" x2="1" y2="1"><stop stop-color="#eadfce"/><stop offset="1" stop-color="#f8f7f1"/></linearGradient>
  <filter id="shadow" x="-20%" y="-20%" width="140%" height="140%"><feDropShadow dx="0" dy="18" stdDeviation="18" flood-color="#15201e" flood-opacity="0.18"/></filter>
</defs>
<rect width="960" height="720" fill="url(#sky)"/>
<path d="M0 385C150 353 242 430 420 389C602 347 720 375 960 331V720H0V385Z" fill="#d8c1a1"/>
<rect x="72" y="74" width="816" height="548" rx="30" fill="#ffffff" filter="url(#shadow)"/>
<rect x="72" y="74" width="816" height="548" rx="30" stroke="#77512e" stroke-opacity="0.16" stroke-width="2"/>
<circle cx="802" cy="146" r="54" fill="#d7a15c" opacity="0.18"/>
<circle cx="158" cy="568" r="78" fill="#77512e" opacity="0.10"/>

<g transform="translate(98 126) scale(1.08)"><rect x="62" y="62" width="244" height="214" fill="#d8d0c5" stroke="#77512e" stroke-width="10"/><g stroke="#f5f0e7" stroke-width="8"><path d="M62 132h244M62 202h244M142 62v214M224 62v214"/></g><path d="M250 42l76 54" stroke="#d7a15c" stroke-width="16" stroke-linecap="round"/></g><g transform="translate(530 140) scale(0.86)"><path d="M50 260h280L284 72H96z" fill="#b98455" stroke="#77512e" stroke-width="10"/><g stroke="#efcf9f" stroke-width="8"><path d="M96 72l-46 188M158 72l-16 188M220 72l16 188M284 72l46 188"/><path d="M84 152h220M68 208h248"/></g></g><g transform="translate(540 386) scale(0.7)"><rect x="60" y="60" width="250" height="200" rx="18" fill="#f8f6ef" stroke="#77512e" stroke-width="12"/><circle cx="185" cy="160" r="58" fill="#d7a15c" opacity=".78"/></g>

<rect x="110" y="612" width="740" height="12" rx="6" fill="#77512e" opacity="0.15"/>
</svg>