<svg width="960" height="720" viewBox="0 0 960 720" fill="none" xmlns="http://www.w3.org/2000/svg" role="img" aria-labelledby="title desc">
<title id="title">general contractor hero concept visual</title>
<desc id="desc">Deterministic trade-relevant concept imagery for a prospect website preview.</desc>
<defs>
  <linearGradient id="sky" x1="0" y1="0" x2="1" y2="1"><stop stop-color="#e5e7df"/><stop offset="1" stop-color="#f8f7f1"/></linearGradient>
  <filter id="shadow" x="-20%" y="-20%" width="140%" height="140%"><feDropShadow dx="0" dy="18" stdDeviation="18" flood-color="#15201e" flood-opacity="0.18"/></filter>
</defs>
<rect width="960" height="720" fill="url(#sky)"/>
<path d="M0 410C150 378 242 455 420 414C602 372 720 400 960 356V720H0V410Z" fill="#d5d0c4"/>
<rect x="72" y="74" width="816" height="548" rx="30" fill="#ffffff" filter="url(#shadow)"/>
<rect x="72" y="74" width="816" height="548" rx="30" stroke="#4f5d4c" stroke-opacity="0.16" stroke-width="2"/>
<circle cx="802" cy="146" r="54" fill="#d4a857" opacity="0.18"/>
<circle cx="158" cy="568" r="78" fill="#4f5d4c" opacity="0.10"/>
<g transform="translate(98 112) scale(1.28)"><path d="M50 250L184 70l134 180" stroke="#b98455" stroke-width="18" fill="none" stroke-linecap="round"/><path d="M92 250V136M184 250V70M276 250V136M92 172h184M70 250h228" stroke="#4f5d4c" stroke-width="14" stroke-linecap="round"/></g><g transform="translate(548 118) scale(0.9)"><rect x="58" y="60" width="250" height="206" rx="8" fill="#dbe8ef" stroke="#4f5d4c" stroke-width="12"/><path d="M96 104h80v64h-80zM198 104h70v118h-70zM96 190h80v32h-80z" stroke="#5d83a2" stroke-width="9" fill="none"/><path d="M76 290h210" stroke="#d4a857" stroke-width="16" stroke-linecap="round"/></g><g transform="translate(588 382) scale(0.72)"><rect x="66" y="184" width="238" height="58" fill="#b98455" stroke="#4f5d4c" stroke-width="8"/><rect x="92" y="132" width="238" height="58" fill="#c99a62" stroke="#4f5d4c" stroke-width="8"/><rect x="118" y="80" width="238" height="58" fill="#d8ad76" stroke="#4f5d4c" stroke-width="8"/><path d="M56 278h300" stroke="#d4a857" stroke-width="16" stroke-linecap="round"/></g>


<rect x="110" y="612" width="740" height="12" rx="6" fill="#4f5d4c" opacity="0.15"/>
</svg>