<svg width="960" height="720" viewBox="0 0 960 720" fill="none" xmlns="http://www.w3.org/2000/svg" role="img" aria-labelledby="title desc">
<title id="title">hvac proof concept visual</title>
<desc id="desc">Deterministic trade-relevant concept imagery for a prospect website preview.</desc>
<defs>
  <linearGradient id="sky" x1="0" y1="0" x2="1" y2="1"><stop stop-color="#dcecf2"/><stop offset="1" stop-color="#f8f7f1"/></linearGradient>
  <filter id="shadow" x="-20%" y="-20%" width="140%" height="140%"><feDropShadow dx="0" dy="18" stdDeviation="18" flood-color="#15201e" flood-opacity="0.18"/></filter>
</defs>
<rect width="960" height="720" fill="url(#sky)"/>
<path d="M0 430C150 398 242 475 420 434C602 392 720 420 960 376V720H0V430Z" fill="#d9e0e1"/>
<rect x="72" y="74" width="816" height="548" rx="30" fill="#fbfaf6" filter="url(#shadow)"/>
<rect x="72" y="74" width="816" height="548" rx="30" stroke="#245e7a" stroke-opacity="0.16" stroke-width="2"/>
<circle cx="802" cy="146" r="54" fill="#55a4c4" opacity="0.18"/>
<circle cx="158" cy="568" r="78" fill="#245e7a" opacity="0.10"/>


<g transform="translate(110 102) scale(1.02)"><rect x="20" y="94" width="310" height="86" rx="42" fill="#dae3e4" stroke="#245e7a" stroke-width="12"/><path d="M64 94v86M114 94v86M164 94v86M214 94v86M264 94v86" stroke="#a9b7ba" stroke-width="7"/><path d="M70 218h210" stroke="#55a4c4" stroke-width="16" stroke-linecap="round"/><path d="M120 246h110" stroke="#55a4c4" stroke-width="12" stroke-linecap="round" opacity=".65"/></g><g transform="translate(516 112) scale(0.88)"><rect x="38" y="76" width="280" height="188" rx="16" fill="#f8f6ef" stroke="#245e7a" stroke-width="14"/><circle cx="178" cy="170" r="62" fill="#dbe9ee" stroke="#245e7a" stroke-width="12"/><path d="M178 108v124M116 170h124M134 126l88 88M222 126l-88 88" stroke="#55a4c4" stroke-width="10" stroke-linecap="round"/><path d="M68 102h220M68 238h220" stroke="#c7d0cf" stroke-width="8"/></g><g transform="translate(360 378) scale(0.82)"><rect x="86" y="58" width="188" height="188" rx="28" fill="#f8f6ef" stroke="#245e7a" stroke-width="12"/><circle cx="180" cy="152" r="58" fill="#ecf5f7" stroke="#55a4c4" stroke-width="12"/><path d="M180 112v40l30 22" stroke="#1f2524" stroke-width="12" stroke-linecap="round"/><circle cx="180" cy="152" r="8" fill="#1f2524"/></g>
<rect x="110" y="612" width="740" height="12" rx="6" fill="#245e7a" opacity="0.15"/>
</svg>