<svg width="960" height="720" viewBox="0 0 960 720" fill="none" xmlns="http://www.w3.org/2000/svg" role="img" aria-labelledby="title desc">
<title id="title">landscaping service concept visual</title>
<desc id="desc">Deterministic trade-relevant concept imagery for a prospect website preview.</desc>
<defs>
  <linearGradient id="sky" x1="0" y1="0" x2="1" y2="1"><stop stop-color="#dcebd5"/><stop offset="1" stop-color="#f8f7f1"/></linearGradient>
  <filter id="shadow" x="-20%" y="-20%" width="140%" height="140%"><feDropShadow dx="0" dy="18" stdDeviation="18" flood-color="#15201e" flood-opacity="0.18"/></filter>
</defs>
<rect width="960" height="720" fill="url(#sky)"/>
<path d="M0 385C150 353 242 430 420 389C602 347 720 375 960 331V720H0V385Z" fill="#cbdcbd"/>
<rect x="72" y="74" width="816" height="548" rx="30" fill="#ffffff" filter="url(#shadow)"/>
<rect x="72" y="74" width="816" height="548" rx="30" stroke="#476f31" stroke-opacity="0.16" stroke-width="2"/>
<circle cx="802" cy="146" r="54" fill="#9ac46d" opacity="0.18"/>
<circle cx="158" cy="568" r="78" fill="#476f31" opacity="0.10"/>

<g transform="translate(98 126) scale(1.08)"><path d="M54 244h280" stroke="#b98455" stroke-width="28" stroke-linecap="round"/><g fill="#72995c"><circle cx="94" cy="180" r="38"/><circle cx="160" cy="162" r="48"/><circle cx="238" cy="178" r="40"/></g><path d="M82 116c46 44 92 44 136 0" stroke="#9ac46d" stroke-width="14" fill="none" stroke-linecap="round"/></g><g transform="translate(530 140) scale(0.86)"><path d="M30 220C92 152 154 186 220 124c44-42 88-40 124-68v244H30z" fill="#72995c"/><circle cx="132" cy="106" r="52" fill="#9ac46d"/><path d="M56 246h270" stroke="#ebf4e2" stroke-width="18" stroke-linecap="round"/></g><g transform="translate(540 386) scale(0.7)"><path d="M42 250h292L270 120H92z" fill="#c6b89a" stroke="#476f31" stroke-width="10"/><g stroke="#eee1c7" stroke-width="6"><path d="M76 210h232M96 170h190M116 130h150"/><path d="M138 120l-42 130M214 120l10 130M270 120l48 130"/></g><circle cx="78" cy="104" r="42" fill="#72995c"/></g>

<rect x="110" y="612" width="740" height="12" rx="6" fill="#476f31" opacity="0.15"/>
</svg>