<svg width="960" height="720" viewBox="0 0 960 720" fill="none" xmlns="http://www.w3.org/2000/svg" role="img" aria-labelledby="title desc">
<title id="title">painting proof concept visual</title>
<desc id="desc">Deterministic trade-relevant concept imagery for a prospect website preview.</desc>
<defs>
  <linearGradient id="sky" x1="0" y1="0" x2="1" y2="1"><stop stop-color="#eadfed"/><stop offset="1" stop-color="#f8f7f1"/></linearGradient>
  <filter id="shadow" x="-20%" y="-20%" width="140%" height="140%"><feDropShadow dx="0" dy="18" stdDeviation="18" flood-color="#15201e" flood-opacity="0.18"/></filter>
</defs>
<rect width="960" height="720" fill="url(#sky)"/>
<path d="M0 430C150 398 242 475 420 434C602 392 720 420 960 376V720H0V430Z" fill="#ded3df"/>
<rect x="72" y="74" width="816" height="548" rx="30" fill="#fbfaf6" filter="url(#shadow)"/>
<rect x="72" y="74" width="816" height="548" rx="30" stroke="#6f3c77" stroke-opacity="0.16" stroke-width="2"/>
<circle cx="802" cy="146" r="54" fill="#d68759" opacity="0.18"/>
<circle cx="158" cy="568" r="78" fill="#6f3c77" opacity="0.10"/>


<g transform="translate(110 102) scale(1.02)"><path d="M68 142h230l-34 114H102z" fill="#f8f6ef" stroke="#6f3c77" stroke-width="12"/><path d="M104 182h160" stroke="#d68759" stroke-width="28" stroke-linecap="round"/><circle cx="284" cy="86" r="34" fill="#d68759"/><path d="M284 120v76" stroke="#1f2524" stroke-width="14" stroke-linecap="round"/></g><g transform="translate(516 112) scale(0.88)"><rect x="68" y="66" width="220" height="82" rx="38" fill="#d68759" stroke="#6f3c77" stroke-width="12"/><path d="M178 148v76h72" stroke="#1f2524" stroke-width="16" fill="none" stroke-linecap="round"/><path d="M250 224v54" stroke="#1f2524" stroke-width="16" stroke-linecap="round"/><path d="M58 190h140" stroke="#f3ded1" stroke-width="16" stroke-linecap="round"/></g><g transform="translate(360 378) scale(0.82)"><rect x="58" y="54" width="240" height="206" rx="6" fill="#f8f6ef" stroke="#6f3c77" stroke-width="12"/><rect x="86" y="86" width="184" height="146" fill="#f4e9e0"/><path d="M72 64h212M72 250h212M64 72v176M292 72v176" stroke="#d68759" stroke-width="12"/><path d="M106 260l88 38" stroke="#1f2524" stroke-width="12" stroke-linecap="round"/></g>
<rect x="110" y="612" width="740" height="12" rx="6" fill="#6f3c77" opacity="0.15"/>
</svg>