<svg width="960" height="720" viewBox="0 0 960 720" fill="none" xmlns="http://www.w3.org/2000/svg" role="img" aria-labelledby="title desc">
<title id="title">plumbing proof concept visual</title>
<desc id="desc">Deterministic trade-relevant concept imagery for a prospect website preview.</desc>
<defs>
  <linearGradient id="sky" x1="0" y1="0" x2="1" y2="1"><stop stop-color="#dceff0"/><stop offset="1" stop-color="#f8f7f1"/></linearGradient>
  <filter id="shadow" x="-20%" y="-20%" width="140%" height="140%"><feDropShadow dx="0" dy="18" stdDeviation="18" flood-color="#15201e" flood-opacity="0.18"/></filter>
</defs>
<rect width="960" height="720" fill="url(#sky)"/>
<path d="M0 430C150 398 242 475 420 434C602 392 720 420 960 376V720H0V430Z" fill="#d5e5e5"/>
<rect x="72" y="74" width="816" height="548" rx="30" fill="#fbfaf6" filter="url(#shadow)"/>
<rect x="72" y="74" width="816" height="548" rx="30" stroke="#1f7184" stroke-opacity="0.16" stroke-width="2"/>
<circle cx="802" cy="146" r="54" fill="#4db2c2" opacity="0.18"/>
<circle cx="158" cy="568" r="78" fill="#1f7184" opacity="0.10"/>


<g transform="translate(110 102) scale(1.02)"><rect x="110" y="54" width="150" height="240" rx="40" fill="#f8f6ef" stroke="#1f7184" stroke-width="14"/><path d="M150 54V18M220 54V18" stroke="#1f2524" stroke-width="12"/><circle cx="185" cy="154" r="44" fill="#e4f3f4" stroke="#4db2c2" stroke-width="10"/><path d="M118 252h134" stroke="#4db2c2" stroke-width="12"/></g><g transform="translate(516 112) scale(0.88)"><rect x="70" y="126" width="230" height="96" rx="38" fill="#f8f6ef" stroke="#1f7184" stroke-width="12"/><path d="M150 126V80c0-28 72-28 72 0v46" stroke="#1f2524" stroke-width="16" fill="none" stroke-linecap="round"/><path d="M186 80v58" stroke="#4db2c2" stroke-width="10"/><path d="M188 222c-18 34-18 65 0 92c18-27 18-58 0-92Z" fill="#4db2c2"/></g><g transform="translate(360 378) scale(0.82)"><path d="M42 88h180c56 0 56 82 0 82h-54c-46 0-46 70 0 70h150" stroke="#1f7184" stroke-width="34" fill="none" stroke-linecap="round"/><path d="M42 88h180c56 0 56 82 0 82h-54c-46 0-46 70 0 70h150" stroke="#bde1e7" stroke-width="14" fill="none" stroke-linecap="round"/><path d="M280 64l58 58M338 64l-58 58" stroke="#1f2524" stroke-width="12" stroke-linecap="round"/></g>
<rect x="110" y="612" width="740" height="12" rx="6" fill="#1f7184" opacity="0.15"/>
</svg>