<svg width="960" height="720" viewBox="0 0 960 720" fill="none" xmlns="http://www.w3.org/2000/svg" role="img" aria-labelledby="title desc">
<title id="title">power washing service concept visual</title>
<desc id="desc">Deterministic trade-relevant concept imagery for a prospect website preview.</desc>
<defs>
  <linearGradient id="sky" x1="0" y1="0" x2="1" y2="1"><stop stop-color="#dbeff4"/><stop offset="1" stop-color="#f8f7f1"/></linearGradient>
  <filter id="shadow" x="-20%" y="-20%" width="140%" height="140%"><feDropShadow dx="0" dy="18" stdDeviation="18" flood-color="#15201e" flood-opacity="0.18"/></filter>
</defs>
<rect width="960" height="720" fill="url(#sky)"/>
<path d="M0 385C150 353 242 430 420 389C602 347 720 375 960 331V720H0V385Z" fill="#d5dee0"/>
<rect x="72" y="74" width="816" height="548" rx="30" fill="#ffffff" filter="url(#shadow)"/>
<rect x="72" y="74" width="816" height="548" rx="30" stroke="#196f8c" stroke-opacity="0.16" stroke-width="2"/>
<circle cx="802" cy="146" r="54" fill="#59b9d2" opacity="0.18"/>
<circle cx="158" cy="568" r="78" fill="#196f8c" opacity="0.10"/>

<g transform="translate(98 126) scale(1.08)"><rect x="54" y="52" width="262" height="228" fill="#f8f6ef" stroke="#196f8c" stroke-width="10"/><g stroke="#cad5d4" stroke-width="9"><path d="M54 94h262M54 136h262M54 178h262M54 220h262"/></g><path d="M54 220h126" stroke="#59b9d2" stroke-width="18"/><path d="M92 250h184" stroke="#59b9d2" stroke-width="12" opacity=".65"/></g><g transform="translate(530 140) scale(0.86)"><path d="M42 228h170" stroke="#196f8c" stroke-width="28" stroke-linecap="round"/><path d="M204 214l70-76" stroke="#1f2524" stroke-width="16" stroke-linecap="round"/><path d="M284 118c30 20 52 52 62 94" stroke="#59b9d2" stroke-width="10" fill="none" stroke-linecap="round"/><path d="M294 150c22 16 38 38 46 68" stroke="#59b9d2" stroke-width="7" fill="none" stroke-linecap="round"/><path d="M44 264h290" stroke="#d7d0bd" stroke-width="22" stroke-linecap="round"/></g><g transform="translate(540 386) scale(0.7)"><path d="M70 48h230l44 244H28z" fill="#c9c5bc" stroke="#196f8c" stroke-width="10"/><path d="M185 48v244M82 170h226" stroke="#efede8" stroke-width="8"/><path d="M48 292h320" stroke="#59b9d2" stroke-width="18" stroke-linecap="round"/></g>

<rect x="110" y="612" width="740" height="12" rx="6" fill="#196f8c" opacity="0.15"/>
</svg>